# xmcd CD database file
#
# Track frame offsets:
#	150
#	18372
#	31612
#	44522
#	65095
#	83402
#	102432
#	117512
#	133002
#	149210
#	162140
#	178550
#
# Disc length: 2575 seconds
#
# Revision: 0
# Processed by: cddbd v1.5.2PL0 Copyright (c) Steve Scherf et al.
# Submitted via: CDex 1.70beta2
#
DISCID=a30a0d0c
DTITLE=松岡直也・他 - ハートカクテル Morning Selection
DYEAR=1900
DGENRE=Jazz
TTITLE0=ごく限られた地方に降った雪
TTITLE1=僕たちのテーブル
TTITLE2=BALLAD("いつか母を日曜島へ"のテーマ)
TTITLE3=カモメが連れてきたカノジョ
TTITLE4=手塚麗子さん
TTITLE5=ボクのLp盤的人生
TTITLE6=虹色の風
TTITLE7=風待ち
TTITLE8=一足お先にIslander
TTITLE9=父のエンブレム
TTITLE10=今をフリージング
TTITLE11=ふたりの会社 1970～1975
EXTD=
EXTT0=
EXTT1=
EXTT2=
EXTT3=
EXTT4=
EXTT5=
EXTT6=
EXTT7=
EXTT8=
EXTT9=
EXTT10=
EXTT11=
PLAYORDER=
